PathFileType	4	(x/y/z)	TRC_MarkerData\Passive\Passive_Pref0006.trc
DataRate	CameraRate	NumFrames	NumMarkers	Units	OrigDataRate	OrigDataStartFrame	OrigNumFrames
240	240	6	49	mm	240	235	313
Frame#	Time	R_AC			L_AC			HEAD			STERN			C7			R_IC			L_ASIS			R_ASIS			L_GT			R_GT			L_PSIS			R_PSIS			SACRAL			L_LAT_KNEE			L_MED_KNEE			R_LAT_KNEE			R_MED_KNEE			L_LAT_ANK			L_MED_ANK			R_LAT_ANK			R_MED_ANK			L_THIGH_PROX_POST			L_THIGH_PROX_ANT			L_THIGH_DIST_ANT			L_THIGH_DIST_POST			R_THIGH_PROX_POST			R_THIGH_PROX_ANT			R_THIGH_DIST_ANT			R_THIGH_DIST_POST			L_SHANK_PROX_POST			L_SHANK_PROX_ANT			L_SHANK_DIST_ANT			L_SHANK_DIST_POST			R_SHANK_PROX_POST			R_SHANK_PROX_ANT			R_SHANK_DIST_ANT			R_SHANK_DIST_POST			L_HEEL_LAT			L_HEEL_SUP			L_HEEL_MED			R_HEEL_LAT			R_HEEL_SUP			R_HEEL_MED			L_1ST_MET			L_5TH_MET			L_TOE			R_1ST_MET			R_5TH_MET			R_TOE			
		X1	Y1	Z1	X2	Y2	Z2	X3	Y3	Z3	X4	Y4	Z4	X5	Y5	Z5	X6	Y6	Z6	X7	Y7	Z7	X8	Y8	Z8	X9	Y9	Z9	X10	Y10	Z10	X11	Y11	Z11	X12	Y12	Z12	X13	Y13	Z13	X14	Y14	Z14	X15	Y15	Z15	X16	Y16	Z16	X17	Y17	Z17	X18	Y18	Z18	X19	Y19	Z19	X20	Y20	Z20	X21	Y21	Z21	X22	Y22	Z22	X23	Y23	Z23	X24	Y24	Z24	X25	Y25	Z25	X26	Y26	Z26	X27	Y27	Z27	X28	Y28	Z28	X29	Y29	Z29	X30	Y30	Z30	X31	Y31	Z31	X32	Y32	Z32	X33	Y33	Z33	X34	Y34	Z34	X35	Y35	Z35	X36	Y36	Z36	X37	Y37	Z37	X38	Y38	Z38	X39	Y39	Z39	X40	Y40	Z40	X41	Y41	Z41	X42	Y42	Z42	X43	Y43	Z43	X44	Y44	Z44	X45	Y45	Z45	X46	Y46	Z46	X47	Y47	Z47	X48	Y48	Z48	X49	Y49	Z49	

235	0.97813	372.97	1528.2	488.8	310.9	1555.5	83.003	362.03	1869.4	304.4	410.85	1513	281.08	277.31	1584.4	293.54	NaN	NaN	NaN	385.01	1058.2	146.79	405.5	1058.5	412.69	301.86	970.71	94.841	327.47	974.59	461.66	193.78	1054.3	236.67	194.14	1052.7	345.43	185.08	1018.2	288.96	436.29	568.19	87.265	448.94	578.37	225.22	357.45	552.9	403.46	349.39	556.64	271.79	81.397	265.87	120.14	77.756	269.57	208.94	284.23	88.492	330.44	320.97	123.43	237.38	355.43	792.06	90.7	412.96	808.79	91.329	438.01	740.44	94.841	379.09	722.85	88.707	325.27	784.99	451.15	393.57	791.8	450.34	394.66	716.43	436.2	324.62	712.7	434.59	348.98	513.89	109.05	395.73	471.31	114.83	361.38	434.87	123.78	319.7	475.02	108.35	304.53	365.12	400.58	370.65	369.92	384.56	364.87	297.49	366.78	297.25	292.62	381.2	-10.03	243.06	125.44	-4.4485	273.85	156.4	-14.97	250.54	191.91	214.92	43.232	300.51	213.34	76.006	268.55	233.51	50.478	237.79	157.52	110.74	230.81	143.5	118.23	120.51	204.64	91.014	200.79	446.22	52.967	247.35	425.35	38.162	356.25	491.93	54.784	289.57
236	0.98231	377.6	1528.8	488.78	315.71	1556	82.93	366.9	1869.9	304.13	415.7	1513.5	281.1	282.14	1584.9	293.45	NaN	NaN	NaN	390.29	1058.9	147.27	409.87	1058.7	413.22	307.69	971.51	94.828	331.17	974.95	461.7	198.74	1054.8	236.4	198.78	1053.2	345.1	189.96	1018.7	288.6	445.3	569.97	87.75	457.11	580.29	225.8	358.24	553.14	403.87	351.04	556.82	272.1	94.648	262.58	118.56	90.466	266.13	207.32	284.55	88.597	330.37	321.35	123.8	237.54	362.73	792.88	90.417	419.99	810.49	91.75	445.5	742.2	95.443	387.04	724.17	88.94	327.54	785.57	451.26	395.86	791.84	450.93	396.52	716.45	436.76	326.47	713.27	434.73	358.68	514.42	109.06	406.02	472.51	115.06	372.13	435.6	123.84	329.98	475.14	108.17	304.9	365.52	400.73	371.05	370.18	384.97	365.23	297.76	367.19	297.53	293.04	381.32	3.5332	238.43	123.34	8.5095	269.28	154.34	-1.8755	245.8	189.81	215.04	43.662	300.49	213.51	76.478	268.61	233.63	50.912	237.79	172.38	108.53	229.63	158.86	115.84	119.27	219.93	89.503	199.86	446.39	52.932	247.47	425.46	38.001	356.36	492.11	54.478	289.71
237	0.98649	382.21	1529.3	488.77	320.54	1556.4	82.848	371.77	1870.4	303.87	420.56	1514	281.13	286.97	1585.4	293.34	NaN	NaN	NaN	395.56	1059.6	147.74	414.22	1059	413.73	313.5	972.27	94.823	334.85	975.3	461.73	203.69	1055.2	236.11	203.4	1053.7	344.76	194.83	1019.1	288.23	454.22	571.73	88.313	465.15	582.17	226.46	359.04	553.41	404.26	352.71	557	272.4	108.04	259.17	117.02	103.29	262.57	205.73	284.89	88.709	330.29	321.74	124.18	237.7	369.88	793.68	90.208	426.96	812.14	92.217	452.9	743.91	96.117	394.91	725.46	89.224	329.81	786.15	451.36	398.15	791.9	451.5	398.37	716.49	437.31	328.32	713.85	434.85	368.34	514.89	109.12	416.27	473.68	115.38	382.87	436.28	123.97	340.24	475.2	108.05	305.27	365.94	400.87	371.45	370.45	385.37	365.6	298.04	367.58	297.83	293.47	381.44	17.266	233.65	121.25	21.616	264.54	152.29	11.372	240.91	187.72	215.17	44.115	300.48	213.71	76.975	268.66	233.76	51.369	237.78	187.41	106.26	228.51	174.42	113.38	118.09	235.37	87.963	199	446.57	52.9	247.58	425.58	37.848	356.47	492.29	54.177	289.84
238	0.99067	386.81	1529.9	488.76	325.4	1556.8	82.756	376.64	1870.8	303.61	425.42	1514.5	281.16	291.81	1585.8	293.22	NaN	NaN	NaN	400.8	1060.3	148.21	418.55	1059.2	414.23	319.27	972.99	94.825	338.52	975.66	461.75	208.63	1055.7	235.82	208.02	1054.1	344.4	199.7	1019.6	287.86	463.07	573.45	88.954	473.08	584.03	227.2	359.85	553.68	404.64	354.39	557.2	272.71	121.56	255.67	115.5	116.23	258.9	204.16	285.23	88.83	330.21	322.15	124.58	237.86	376.87	794.48	90.074	433.86	813.74	92.728	460.21	745.57	96.863	402.71	726.7	89.553	332.08	786.74	451.45	400.44	791.98	452.03	400.23	716.55	437.83	330.18	714.44	434.97	377.97	515.31	109.24	426.48	474.82	115.77	393.59	436.94	124.18	350.49	475.2	107.99	305.66	366.38	401	371.86	370.73	385.77	365.97	298.34	367.97	298.13	293.92	381.55	31.17	228.72	119.18	34.872	259.66	150.24	24.775	235.86	185.63	215.29	44.593	300.46	213.94	77.499	268.72	233.92	51.853	237.77	202.59	103.96	227.45	190.16	110.88	116.98	250.98	86.404	198.23	446.75	52.873	247.69	425.7	37.702	356.57	492.47	53.881	289.98
239	0.99485	391.39	1530.4	488.74	330.3	1557.2	82.654	381.5	1871.3	303.36	430.27	1514.9	281.18	296.66	1586.3	293.1	NaN	NaN	NaN	406.03	1060.9	148.67	422.86	1059.5	414.73	325.02	973.67	94.835	342.19	976.01	461.77	213.56	1056.1	235.5	212.61	1054.5	344.04	204.55	1020	287.48	471.82	575.15	89.671	480.88	585.85	228	360.67	553.98	405	356.08	557.4	273.02	135.22	252.06	114.02	129.29	255.11	202.63	285.59	88.963	330.11	322.55	125	238.03	383.73	795.27	90.015	440.69	815.28	93.281	467.44	747.18	97.677	410.43	727.9	89.925	334.35	787.34	451.53	402.74	792.07	452.55	402.09	716.62	438.34	332.06	715.04	435.06	387.55	515.67	109.42	436.66	475.94	116.23	404.3	437.56	124.46	360.72	475.14	107.99	306.05	366.83	401.13	372.27	371.04	386.15	366.34	298.66	368.35	298.45	294.39	381.66	45.247	223.67	117.12	48.279	254.64	148.22	38.335	230.67	183.55	215.42	45.098	300.44	214.19	78.052	268.78	234.1	52.365	237.74	217.92	101.61	226.46	206.07	108.34	115.94	266.74	84.836	197.54	446.93	52.85	247.81	425.81	37.564	356.67	492.65	53.59	290.1
240	0.99903	395.97	1530.8	488.72	335.22	1557.6	82.542	386.37	1871.7	303.11	435.14	1515.3	281.2	301.52	1586.7	292.96	NaN	NaN	NaN	411.25	1061.4	149.12	427.14	1059.7	415.21	330.74	974.3	94.852	345.85	976.37	461.77	218.48	1056.6	235.18	217.19	1055	343.66	209.39	1020.4	287.09	480.49	576.8	90.463	488.55	587.62	228.87	361.5	554.29	405.36	357.77	557.61	273.33	149.01	248.37	112.57	142.47	251.23	201.12	285.95	89.113	330.02	322.97	125.43	238.19	390.45	796.04	90.031	447.45	816.77	93.872	474.58	748.75	98.554	418.07	729.05	90.333	336.64	787.94	451.61	405.05	792.17	453.03	403.96	716.72	438.82	333.95	715.65	435.15	397.09	515.98	109.66	446.8	477.03	116.78	414.99	438.16	124.82	370.93	475.02	108.04	306.46	367.31	401.26	372.69	371.36	386.54	366.73	298.99	368.73	298.78	294.87	381.77	59.495	218.49	115.08	61.839	249.49	146.21	52.055	225.35	181.49	215.56	45.632	300.43	214.46	78.636	268.83	234.29	52.909	237.7	233.4	99.249	225.55	222.17	105.78	114.98	282.65	83.267	196.94	447.11	52.833	247.92	425.93	37.432	356.77	492.83	53.303	290.23
